<svg width="15" height="15" viewBox="0 0 15 15" fill="none" xmlns="http://www.w3.org/2000/svg">
<path d="M2.25943 3.94819C2.25943 3.04431 2.99179 2.31194 3.89568 2.31122H4.64035C5.07239 2.31122 5.48633 2.1397 5.79318 1.83576L6.31351 1.3147C6.95107 0.673519 7.98739 0.670625 8.62857 1.30819L8.6293 1.30891L8.63581 1.3147L9.15686 1.83576C9.4637 2.14043 9.87765 2.31122 10.3097 2.31122H11.0536C11.9575 2.31122 12.6906 3.04359 12.6906 3.94819V4.69141C12.6906 5.12345 12.8614 5.53813 13.1661 5.84497L13.6871 6.36602C14.3283 7.00359 14.3319 8.0399 13.6944 8.68109L13.6936 8.68181L13.6871 8.68832L13.1661 9.20938C12.8614 9.51549 12.6906 9.92944 12.6906 10.3615V11.1062C12.6906 12.01 11.9582 12.7424 11.0544 12.7424H11.0536H10.3082C9.8762 12.7424 9.46153 12.9139 9.15541 13.2186L8.63436 13.7389C7.99752 14.3801 6.96193 14.3837 6.32074 13.7476C6.32002 13.7469 6.3193 13.7462 6.31857 13.7454L6.31206 13.7389L5.79173 13.2186C5.48561 12.9139 5.07094 12.7431 4.6389 12.7424H3.89568C2.99179 12.7424 2.25943 12.01 2.25943 11.1062V10.36C2.25943 9.92799 2.08791 9.51405 1.78324 9.20793L1.26291 8.68688C0.621729 8.05003 0.61811 7.01444 1.25495 6.37326C1.25495 6.37253 1.25568 6.37181 1.2564 6.37109L1.26291 6.36457L1.78324 5.84352C2.08791 5.53668 2.25943 5.12273 2.25943 4.68997V3.94819" stroke="white" stroke-width="1.18421" stroke-linecap="round" stroke-linejoin="round"/>
<path d="M5.61487 9.38722L9.3346 5.66748" stroke="white" stroke-width="1.18421" stroke-linecap="round" stroke-linejoin="round"/>
<path d="M9.27961 9.33535H9.28612" stroke="white" stroke-width="1.57895" stroke-linecap="round" stroke-linejoin="round"/>
<path d="M5.6612 5.71707H5.66771" stroke="white" stroke-width="1.57895" stroke-linecap="round" stroke-linejoin="round"/>
</svg>
